%TF.GenerationSoftware,KiCad,Pcbnew,10.0.1*%
%TF.CreationDate,2026-05-07T20:07:55-03:00*%
%TF.ProjectId,FabLaBrinde,4661624c-6142-4726-996e-64652e6b6963,rev?*%
%TF.SameCoordinates,Original*%
%TF.FileFunction,Legend,Bot*%
%TF.FilePolarity,Positive*%
%FSLAX46Y46*%
G04 Gerber Fmt 4.6, Leading zero omitted, Abs format (unit mm)*
G04 Created by KiCad (PCBNEW 10.0.1) date 2026-05-07 20:07:55*
%MOMM*%
%LPD*%
G01*
G04 APERTURE LIST*
%ADD10C,0.150000*%
%ADD11C,0.120000*%
G04 APERTURE END LIST*
D10*
X196817077Y-99885591D02*
X196340886Y-99552258D01*
X196817077Y-99314163D02*
X195817077Y-99314163D01*
X195817077Y-99314163D02*
X195817077Y-99695115D01*
X195817077Y-99695115D02*
X195864696Y-99790353D01*
X195864696Y-99790353D02*
X195912315Y-99837972D01*
X195912315Y-99837972D02*
X196007553Y-99885591D01*
X196007553Y-99885591D02*
X196150410Y-99885591D01*
X196150410Y-99885591D02*
X196245648Y-99837972D01*
X196245648Y-99837972D02*
X196293267Y-99790353D01*
X196293267Y-99790353D02*
X196340886Y-99695115D01*
X196340886Y-99695115D02*
X196340886Y-99314163D01*
X196817077Y-100837972D02*
X196817077Y-100266544D01*
X196817077Y-100552258D02*
X195817077Y-100552258D01*
X195817077Y-100552258D02*
X195959934Y-100457020D01*
X195959934Y-100457020D02*
X196055172Y-100361782D01*
X196055172Y-100361782D02*
X196102791Y-100266544D01*
X193297077Y-99718924D02*
X194011362Y-99718924D01*
X194011362Y-99718924D02*
X194154219Y-99671305D01*
X194154219Y-99671305D02*
X194249458Y-99576067D01*
X194249458Y-99576067D02*
X194297077Y-99433210D01*
X194297077Y-99433210D02*
X194297077Y-99337972D01*
X193297077Y-100099877D02*
X193297077Y-100718924D01*
X193297077Y-100718924D02*
X193678029Y-100385591D01*
X193678029Y-100385591D02*
X193678029Y-100528448D01*
X193678029Y-100528448D02*
X193725648Y-100623686D01*
X193725648Y-100623686D02*
X193773267Y-100671305D01*
X193773267Y-100671305D02*
X193868505Y-100718924D01*
X193868505Y-100718924D02*
X194106600Y-100718924D01*
X194106600Y-100718924D02*
X194201838Y-100671305D01*
X194201838Y-100671305D02*
X194249458Y-100623686D01*
X194249458Y-100623686D02*
X194297077Y-100528448D01*
X194297077Y-100528448D02*
X194297077Y-100242734D01*
X194297077Y-100242734D02*
X194249458Y-100147496D01*
X194249458Y-100147496D02*
X194201838Y-100099877D01*
X180404819Y-99718924D02*
X181119104Y-99718924D01*
X181119104Y-99718924D02*
X181261961Y-99671305D01*
X181261961Y-99671305D02*
X181357200Y-99576067D01*
X181357200Y-99576067D02*
X181404819Y-99433210D01*
X181404819Y-99433210D02*
X181404819Y-99337972D01*
X180500057Y-100147496D02*
X180452438Y-100195115D01*
X180452438Y-100195115D02*
X180404819Y-100290353D01*
X180404819Y-100290353D02*
X180404819Y-100528448D01*
X180404819Y-100528448D02*
X180452438Y-100623686D01*
X180452438Y-100623686D02*
X180500057Y-100671305D01*
X180500057Y-100671305D02*
X180595295Y-100718924D01*
X180595295Y-100718924D02*
X180690533Y-100718924D01*
X180690533Y-100718924D02*
X180833390Y-100671305D01*
X180833390Y-100671305D02*
X181404819Y-100099877D01*
X181404819Y-100099877D02*
X181404819Y-100718924D01*
%TO.C,J1*%
D11*
X176132258Y-96992258D02*
X180852258Y-96992258D01*
X180852258Y-103112258D01*
X176132258Y-103112258D01*
X176132258Y-96992258D01*
X178742258Y-103112258D02*
X178742258Y-102502258D01*
X177442258Y-103112258D02*
X177442258Y-102502258D01*
X180242258Y-102502258D02*
X176742258Y-102502258D01*
X176742258Y-102502258D02*
X176742258Y-100552258D01*
X176742258Y-100552258D02*
X176132258Y-100552258D01*
X179742258Y-100152258D02*
X180242258Y-100152258D01*
X180242258Y-100052258D02*
X179742258Y-100052258D01*
X180242258Y-99952258D02*
X179742258Y-99952258D01*
X179742258Y-99952258D02*
X179742258Y-100152258D01*
X176742258Y-99552258D02*
X176742258Y-97602258D01*
X176132258Y-99552258D02*
X176742258Y-99552258D01*
X176132258Y-98752258D02*
X175932258Y-98752258D01*
X176032258Y-98752258D02*
X176032258Y-98452258D01*
X175932258Y-98752258D02*
X175932258Y-98452258D01*
X175932258Y-98452258D02*
X176132258Y-98452258D01*
X175832258Y-97942258D02*
X175832258Y-96692258D01*
X180242258Y-97602258D02*
X180242258Y-102502258D01*
X176742258Y-97602258D02*
X180242258Y-97602258D01*
X178742258Y-96992258D02*
X178742258Y-97602258D01*
X177442258Y-96992258D02*
X177442258Y-97602258D01*
X175832258Y-96692258D02*
X177082258Y-96692258D01*
%TO.C,R1*%
X193522258Y-101972258D02*
X193522258Y-98132258D01*
X195362258Y-101972258D02*
X195362258Y-98132258D01*
%TO.C,J3*%
X188032258Y-96992258D02*
X192752258Y-96992258D01*
X192752258Y-103112258D01*
X188032258Y-103112258D01*
X188032258Y-96992258D01*
X190142258Y-96992258D02*
X190142258Y-97602258D01*
X191442258Y-96992258D02*
X191442258Y-97602258D01*
X188642258Y-97602258D02*
X192142258Y-97602258D01*
X192142258Y-97602258D02*
X192142258Y-99552258D01*
X192142258Y-99552258D02*
X192752258Y-99552258D01*
X189142258Y-99952258D02*
X188642258Y-99952258D01*
X188642258Y-100052258D02*
X189142258Y-100052258D01*
X188642258Y-100152258D02*
X189142258Y-100152258D01*
X189142258Y-100152258D02*
X189142258Y-99952258D01*
X192142258Y-100552258D02*
X192142258Y-102502258D01*
X192752258Y-100552258D02*
X192142258Y-100552258D01*
X192752258Y-101352258D02*
X192952258Y-101352258D01*
X192852258Y-101352258D02*
X192852258Y-101652258D01*
X192952258Y-101352258D02*
X192952258Y-101652258D01*
X192952258Y-101652258D02*
X192752258Y-101652258D01*
X193052258Y-102162258D02*
X193052258Y-103412258D01*
X188642258Y-102502258D02*
X188642258Y-97602258D01*
X192142258Y-102502258D02*
X188642258Y-102502258D01*
X190142258Y-103112258D02*
X190142258Y-102502258D01*
X191442258Y-103112258D02*
X191442258Y-102502258D01*
X193052258Y-103412258D02*
X191802258Y-103412258D01*
%TO.C,J2*%
X182040000Y-96992258D02*
X186760000Y-96992258D01*
X186760000Y-103112258D01*
X182040000Y-103112258D01*
X182040000Y-96992258D01*
X184650000Y-103112258D02*
X184650000Y-102502258D01*
X183350000Y-103112258D02*
X183350000Y-102502258D01*
X186150000Y-102502258D02*
X182650000Y-102502258D01*
X182650000Y-102502258D02*
X182650000Y-100552258D01*
X182650000Y-100552258D02*
X182040000Y-100552258D01*
X185650000Y-100152258D02*
X186150000Y-100152258D01*
X186150000Y-100052258D02*
X185650000Y-100052258D01*
X186150000Y-99952258D02*
X185650000Y-99952258D01*
X185650000Y-99952258D02*
X185650000Y-100152258D01*
X182650000Y-99552258D02*
X182650000Y-97602258D01*
X182040000Y-99552258D02*
X182650000Y-99552258D01*
X182040000Y-98752258D02*
X181840000Y-98752258D01*
X181940000Y-98752258D02*
X181940000Y-98452258D01*
X181840000Y-98752258D02*
X181840000Y-98452258D01*
X181840000Y-98452258D02*
X182040000Y-98452258D01*
X181740000Y-97942258D02*
X181740000Y-96692258D01*
X186150000Y-97602258D02*
X186150000Y-102502258D01*
X182650000Y-97602258D02*
X186150000Y-97602258D01*
X184650000Y-96992258D02*
X184650000Y-97602258D01*
X183350000Y-96992258D02*
X183350000Y-97602258D01*
X181740000Y-96692258D02*
X182990000Y-96692258D01*
%TD*%
M02*
