%TF.GenerationSoftware,KiCad,Pcbnew,10.0.1*%
%TF.CreationDate,2026-05-07T20:07:55-03:00*%
%TF.ProjectId,FabLaBrinde,4661624c-6142-4726-996e-64652e6b6963,rev?*%
%TF.SameCoordinates,Original*%
%TF.FileFunction,Copper,L1,Top*%
%TF.FilePolarity,Positive*%
%FSLAX46Y46*%
G04 Gerber Fmt 4.6, Leading zero omitted, Abs format (unit mm)*
G04 Created by KiCad (PCBNEW 10.0.1) date 2026-05-07 20:07:55*
%MOMM*%
%LPD*%
G01*
G04 APERTURE LIST*
G04 Aperture macros list*
%AMRoundRect*
0 Rectangle with rounded corners*
0 $1 Rounding radius*
0 $2 $3 $4 $5 $6 $7 $8 $9 X,Y pos of 4 corners*
0 Add a 4 corners polygon primitive as box body*
4,1,4,$2,$3,$4,$5,$6,$7,$8,$9,$2,$3,0*
0 Add four circle primitives for the rounded corners*
1,1,$1+$1,$2,$3*
1,1,$1+$1,$4,$5*
1,1,$1+$1,$6,$7*
1,1,$1+$1,$8,$9*
0 Add four rect primitives between the rounded corners*
20,1,$1+$1,$2,$3,$4,$5,0*
20,1,$1+$1,$4,$5,$6,$7,0*
20,1,$1+$1,$6,$7,$8,$9,0*
20,1,$1+$1,$8,$9,$2,$3,0*%
G04 Aperture macros list end*
%TA.AperFunction,ComponentPad*%
%ADD10O,1.750000X1.200000*%
%TD*%
%TA.AperFunction,ComponentPad*%
%ADD11RoundRect,0.250000X-0.625000X0.350000X-0.625000X-0.350000X0.625000X-0.350000X0.625000X0.350000X0*%
%TD*%
%TA.AperFunction,ComponentPad*%
%ADD12C,1.400000*%
%TD*%
%TA.AperFunction,ComponentPad*%
%ADD13RoundRect,0.250000X0.625000X-0.350000X0.625000X0.350000X-0.625000X0.350000X-0.625000X-0.350000X0*%
%TD*%
%TA.AperFunction,SMDPad,CuDef*%
%ADD14R,1.500000X2.000000*%
%TD*%
%TA.AperFunction,Conductor*%
%ADD15C,1.000000*%
%TD*%
G04 APERTURE END LIST*
D10*
%TO.P,J1,2,Pin_2_2*%
%TO.N,Net-(J1-Pin_2)*%
X177942258Y-101052258D03*
D11*
%TO.P,J1,1,Pin_1_1*%
%TO.N,GND*%
X177942258Y-99052258D03*
%TD*%
D12*
%TO.P,R1,2*%
%TO.N,Net-(J2-Pin_2)*%
X194442258Y-97512258D03*
%TO.P,R1,1*%
%TO.N,Net-(J3-Pin_2)*%
X194442258Y-102592258D03*
%TD*%
D10*
%TO.P,J3,2,Pin_2_2*%
%TO.N,Net-(J3-Pin_2)*%
X190942258Y-99052258D03*
D13*
%TO.P,J3,1,Pin_1_1*%
%TO.N,GND*%
X190942258Y-101052258D03*
%TD*%
D14*
%TO.P,SW1,1,1_1*%
%TO.N,Net-(J1-Pin_2)*%
X203692258Y-95952258D03*
%TO.P,SW1,2,2_2*%
%TO.N,Net-(J2-Pin_2)*%
X198692258Y-95952258D03*
%TD*%
D10*
%TO.P,J2,2,Pin_2_2*%
%TO.N,Net-(J2-Pin_2)*%
X183850000Y-101052258D03*
D11*
%TO.P,J2,1,Pin_1_1*%
%TO.N,GND*%
X183850000Y-99052258D03*
%TD*%
%TO.N,Net-(J2-Pin_2)*%
D15*
X197132258Y-97512258D02*
X198692258Y-95952258D01*
X194442258Y-97512258D02*
X197132258Y-97512258D01*
X183850000Y-101052258D02*
X186545938Y-101052258D01*
%TO.N,Net-(J1-Pin_2)*%
X203692258Y-97307742D02*
X203692258Y-95952258D01*
X196807742Y-104192258D02*
X203692258Y-97307742D01*
X177942258Y-101052258D02*
X181082258Y-104192258D01*
X181082258Y-104192258D02*
X196807742Y-104192258D01*
%TO.N,Net-(J2-Pin_2)*%
X190085938Y-97512258D02*
X194442258Y-97512258D01*
X186545938Y-101052258D02*
X190085938Y-97512258D01*
%TO.N,Net-(J3-Pin_2)*%
X194442258Y-101802258D02*
X194442258Y-102592258D01*
X191692258Y-99052258D02*
X194442258Y-101802258D01*
X190942258Y-99052258D02*
X191692258Y-99052258D01*
%TO.N,Net-(J2-Pin_2)*%
X198652258Y-95912258D02*
X198692258Y-95952258D01*
%TD*%
%TA.AperFunction,Conductor*%
%TO.N,GND*%
G36*
X163101240Y-91506450D02*
G01*
X163157077Y-91516887D01*
X163264509Y-91536969D01*
X163282070Y-91541965D01*
X163422937Y-91596537D01*
X163436963Y-91601971D01*
X163453317Y-91610115D01*
X163594531Y-91697551D01*
X163609110Y-91708560D01*
X163731858Y-91820460D01*
X163744165Y-91833961D01*
X163844264Y-91966512D01*
X163853882Y-91982045D01*
X163927915Y-92130724D01*
X163934515Y-92147759D01*
X163979971Y-92307518D01*
X163983328Y-92325476D01*
X163998866Y-92493162D01*
X163999078Y-92495444D01*
X163999500Y-92504579D01*
X163999500Y-92636837D01*
X164030783Y-92864446D01*
X164036765Y-92907965D01*
X164110602Y-93171492D01*
X164110604Y-93171496D01*
X164219630Y-93422503D01*
X164219631Y-93422504D01*
X164219634Y-93422509D01*
X164219635Y-93422511D01*
X164361832Y-93656345D01*
X164534546Y-93868638D01*
X164734558Y-94055437D01*
X164958143Y-94213260D01*
X165201136Y-94339169D01*
X165459010Y-94430818D01*
X165726962Y-94486499D01*
X165863481Y-94495837D01*
X165999997Y-94505175D01*
X166000000Y-94505175D01*
X166000003Y-94505175D01*
X166117016Y-94497171D01*
X166273038Y-94486499D01*
X166540990Y-94430818D01*
X166798864Y-94339169D01*
X167041857Y-94213260D01*
X167265442Y-94055437D01*
X167465454Y-93868638D01*
X167638168Y-93656345D01*
X167780365Y-93422511D01*
X167780368Y-93422503D01*
X167780369Y-93422503D01*
X167812394Y-93348772D01*
X167889398Y-93171492D01*
X167963235Y-92907965D01*
X168000500Y-92636838D01*
X168000500Y-92504579D01*
X168000922Y-92495445D01*
X168001134Y-92493162D01*
X168016672Y-92325469D01*
X168020026Y-92307524D01*
X168065485Y-92147754D01*
X168072081Y-92130729D01*
X168146121Y-91982037D01*
X168155735Y-91966512D01*
X168255834Y-91833961D01*
X168268141Y-91820460D01*
X168390895Y-91708555D01*
X168405462Y-91697555D01*
X168546685Y-91610113D01*
X168563033Y-91601972D01*
X168717932Y-91541964D01*
X168735477Y-91536971D01*
X168898767Y-91506448D01*
X168916950Y-91504764D01*
X169083050Y-91504764D01*
X169101240Y-91506450D01*
X169157077Y-91516887D01*
X169264509Y-91536969D01*
X169282070Y-91541965D01*
X169422937Y-91596537D01*
X169436963Y-91601971D01*
X169453317Y-91610115D01*
X169594531Y-91697551D01*
X169609110Y-91708560D01*
X169731858Y-91820460D01*
X169744165Y-91833961D01*
X169844264Y-91966512D01*
X169853882Y-91982045D01*
X169927915Y-92130724D01*
X169934515Y-92147759D01*
X169979971Y-92307518D01*
X169983328Y-92325476D01*
X169998866Y-92493162D01*
X169999078Y-92495444D01*
X169999500Y-92504579D01*
X169999500Y-92631120D01*
X170033730Y-92891116D01*
X170094806Y-93119054D01*
X170101600Y-93144411D01*
X170101604Y-93144424D01*
X170201953Y-93386689D01*
X170201955Y-93386693D01*
X170201957Y-93386697D01*
X170267084Y-93499500D01*
X170333079Y-93613806D01*
X170492712Y-93821844D01*
X170492714Y-93821846D01*
X170492718Y-93821851D01*
X170678149Y-94007282D01*
X170678153Y-94007285D01*
X170678155Y-94007287D01*
X170740912Y-94055442D01*
X170886197Y-94166923D01*
X171113303Y-94298043D01*
X171355581Y-94398398D01*
X171608884Y-94466270D01*
X171868880Y-94500500D01*
X171934108Y-94500500D01*
X197457461Y-94500500D01*
X197515652Y-94519407D01*
X197551616Y-94568907D01*
X197551616Y-94630093D01*
X197536714Y-94658829D01*
X197498460Y-94709928D01*
X197448168Y-94844769D01*
X197448166Y-94844780D01*
X197441758Y-94904387D01*
X197441758Y-95746829D01*
X197422851Y-95805020D01*
X197412762Y-95816833D01*
X196746834Y-96482762D01*
X196692317Y-96510539D01*
X196676830Y-96511758D01*
X195139768Y-96511758D01*
X195081578Y-96492851D01*
X195077107Y-96489603D01*
X195071455Y-96485496D01*
X194903090Y-96399711D01*
X194723371Y-96341316D01*
X194536742Y-96311758D01*
X194536739Y-96311758D01*
X194347777Y-96311758D01*
X194347774Y-96311758D01*
X194161144Y-96341316D01*
X193981425Y-96399711D01*
X193813060Y-96485496D01*
X193805504Y-96490986D01*
X193802937Y-96492851D01*
X193744748Y-96511758D01*
X189987394Y-96511758D01*
X189892658Y-96530603D01*
X189794100Y-96550207D01*
X189794096Y-96550208D01*
X189740772Y-96572295D01*
X189740772Y-96572296D01*
X189703062Y-96587915D01*
X189612024Y-96625625D01*
X189448156Y-96735119D01*
X189448152Y-96735122D01*
X189356634Y-96826641D01*
X189308799Y-96874476D01*
X189308796Y-96874479D01*
X187722116Y-98461160D01*
X186160514Y-100022762D01*
X186105997Y-100050539D01*
X186090510Y-100051758D01*
X184983746Y-100051758D01*
X184925555Y-100032851D01*
X184889591Y-99983351D01*
X184889591Y-99922165D01*
X184913742Y-99882754D01*
X184992685Y-99803810D01*
X185076280Y-99662459D01*
X185076280Y-99662458D01*
X185122100Y-99504747D01*
X185125000Y-99467894D01*
X185125000Y-99252259D01*
X185124999Y-99252258D01*
X184167543Y-99252258D01*
X184199444Y-99197003D01*
X184225000Y-99101628D01*
X184225000Y-99002888D01*
X184199444Y-98907513D01*
X184167543Y-98852258D01*
X185124999Y-98852258D01*
X185125000Y-98852257D01*
X185125000Y-98636621D01*
X185122100Y-98599768D01*
X185076280Y-98442057D01*
X185076280Y-98442056D01*
X184992685Y-98300705D01*
X184876552Y-98184572D01*
X184735200Y-98100977D01*
X184577489Y-98055157D01*
X184540637Y-98052258D01*
X184050001Y-98052258D01*
X184050000Y-98052259D01*
X184050000Y-98734715D01*
X183994745Y-98702814D01*
X183899370Y-98677258D01*
X183800630Y-98677258D01*
X183705255Y-98702814D01*
X183650000Y-98734715D01*
X183650000Y-98052259D01*
X183649999Y-98052258D01*
X183159363Y-98052258D01*
X183122510Y-98055157D01*
X182964799Y-98100977D01*
X182964798Y-98100977D01*
X182823447Y-98184572D01*
X182707314Y-98300705D01*
X182623719Y-98442056D01*
X182623719Y-98442057D01*
X182577899Y-98599768D01*
X182575000Y-98636621D01*
X182575000Y-98852257D01*
X182575001Y-98852258D01*
X183532457Y-98852258D01*
X183500556Y-98907513D01*
X183475000Y-99002888D01*
X183475000Y-99101628D01*
X183500556Y-99197003D01*
X183532457Y-99252258D01*
X182575001Y-99252258D01*
X182575000Y-99252259D01*
X182575000Y-99467894D01*
X182577899Y-99504747D01*
X182623719Y-99662458D01*
X182623719Y-99662459D01*
X182707314Y-99803810D01*
X182823447Y-99919943D01*
X182935050Y-99985945D01*
X182975513Y-100031840D01*
X182981271Y-100092754D01*
X182950125Y-100145419D01*
X182942847Y-100151250D01*
X182858074Y-100212842D01*
X182735585Y-100335331D01*
X182633766Y-100475472D01*
X182555125Y-100629816D01*
X182555123Y-100629819D01*
X182501598Y-100794551D01*
X182501597Y-100794555D01*
X182474500Y-100965643D01*
X182474500Y-101138872D01*
X182501597Y-101309960D01*
X182501598Y-101309964D01*
X182555123Y-101474696D01*
X182555125Y-101474699D01*
X182620720Y-101603439D01*
X182633768Y-101629046D01*
X182735586Y-101769186D01*
X182858072Y-101891672D01*
X182998212Y-101993490D01*
X183152555Y-102072131D01*
X183152557Y-102072131D01*
X183152558Y-102072132D01*
X183152561Y-102072134D01*
X183317293Y-102125659D01*
X183317297Y-102125660D01*
X183488386Y-102152758D01*
X183488389Y-102152758D01*
X184211614Y-102152758D01*
X184382702Y-102125660D01*
X184382706Y-102125659D01*
X184547438Y-102072134D01*
X184547440Y-102072132D01*
X184547445Y-102072131D01*
X184564290Y-102063547D01*
X184609235Y-102052758D01*
X186644478Y-102052758D01*
X186644479Y-102052758D01*
X186741126Y-102033533D01*
X186837774Y-102014309D01*
X186891103Y-101992219D01*
X187019852Y-101938890D01*
X187183720Y-101829397D01*
X187323077Y-101690040D01*
X187323077Y-101690038D01*
X187328714Y-101684402D01*
X187328718Y-101684397D01*
X189514252Y-99498862D01*
X189568767Y-99471087D01*
X189629199Y-99480658D01*
X189672463Y-99523922D01*
X189726026Y-99629046D01*
X189827844Y-99769186D01*
X189950330Y-99891672D01*
X189950333Y-99891674D01*
X189950335Y-99891676D01*
X190035104Y-99953265D01*
X190071068Y-100002765D01*
X190071067Y-100063950D01*
X190035103Y-100113450D01*
X190027309Y-100118570D01*
X189915704Y-100184573D01*
X189799572Y-100300705D01*
X189715977Y-100442056D01*
X189715977Y-100442057D01*
X189670157Y-100599768D01*
X189667258Y-100636621D01*
X189667258Y-100852257D01*
X189667259Y-100852258D01*
X190624715Y-100852258D01*
X190592814Y-100907513D01*
X190567258Y-101002888D01*
X190567258Y-101101628D01*
X190592814Y-101197003D01*
X190624715Y-101252258D01*
X189667259Y-101252258D01*
X189667258Y-101252259D01*
X189667258Y-101467894D01*
X189670157Y-101504747D01*
X189715977Y-101662458D01*
X189715977Y-101662459D01*
X189799572Y-101803810D01*
X189915705Y-101919943D01*
X190057057Y-102003538D01*
X190214768Y-102049358D01*
X190251621Y-102052258D01*
X190742257Y-102052258D01*
X190742258Y-102052257D01*
X190742258Y-101369800D01*
X190797513Y-101401702D01*
X190892888Y-101427258D01*
X190991628Y-101427258D01*
X191087003Y-101401702D01*
X191142258Y-101369800D01*
X191142258Y-102052257D01*
X191142259Y-102052258D01*
X191632895Y-102052258D01*
X191669747Y-102049358D01*
X191827458Y-102003538D01*
X191827459Y-102003538D01*
X191968810Y-101919943D01*
X192084943Y-101803810D01*
X192168538Y-101662459D01*
X192168538Y-101662458D01*
X192214358Y-101504747D01*
X192217258Y-101467894D01*
X192217258Y-101231186D01*
X192236165Y-101172995D01*
X192285665Y-101137031D01*
X192346851Y-101137031D01*
X192386262Y-101161182D01*
X193293383Y-102068303D01*
X193321160Y-102122820D01*
X193317534Y-102168899D01*
X193271317Y-102311142D01*
X193241758Y-102497773D01*
X193241758Y-102686742D01*
X193271316Y-102873371D01*
X193329709Y-103053085D01*
X193330443Y-103054855D01*
X193330493Y-103055498D01*
X193330913Y-103056789D01*
X193330603Y-103056889D01*
X193335255Y-103115851D01*
X193303296Y-103168026D01*
X193246772Y-103191451D01*
X193238986Y-103191758D01*
X181537687Y-103191758D01*
X181479496Y-103172851D01*
X181467683Y-103162762D01*
X179346754Y-101041833D01*
X179318977Y-100987316D01*
X179317758Y-100971829D01*
X179317758Y-100965643D01*
X179290660Y-100794555D01*
X179290659Y-100794551D01*
X179237134Y-100629819D01*
X179237132Y-100629816D01*
X179237131Y-100629815D01*
X179237131Y-100629813D01*
X179158490Y-100475470D01*
X179056672Y-100335330D01*
X178934186Y-100212844D01*
X178934182Y-100212841D01*
X178934180Y-100212839D01*
X178849411Y-100151250D01*
X178813447Y-100101750D01*
X178813448Y-100040565D01*
X178849412Y-99991065D01*
X178857207Y-99985944D01*
X178968812Y-99919941D01*
X179084943Y-99803810D01*
X179168538Y-99662459D01*
X179168538Y-99662458D01*
X179214358Y-99504747D01*
X179217258Y-99467894D01*
X179217258Y-99252259D01*
X179217257Y-99252258D01*
X178259801Y-99252258D01*
X178291702Y-99197003D01*
X178317258Y-99101628D01*
X178317258Y-99002888D01*
X178291702Y-98907513D01*
X178259801Y-98852258D01*
X179217257Y-98852258D01*
X179217258Y-98852257D01*
X179217258Y-98636621D01*
X179214358Y-98599768D01*
X179168538Y-98442057D01*
X179168538Y-98442056D01*
X179084943Y-98300705D01*
X178968810Y-98184572D01*
X178827458Y-98100977D01*
X178669747Y-98055157D01*
X178632895Y-98052258D01*
X178142259Y-98052258D01*
X178142258Y-98052259D01*
X178142258Y-98734715D01*
X178087003Y-98702814D01*
X177991628Y-98677258D01*
X177892888Y-98677258D01*
X177797513Y-98702814D01*
X177742258Y-98734715D01*
X177742258Y-98052259D01*
X177742257Y-98052258D01*
X177251621Y-98052258D01*
X177214768Y-98055157D01*
X177057057Y-98100977D01*
X177057056Y-98100977D01*
X176915705Y-98184572D01*
X176799572Y-98300705D01*
X176715977Y-98442056D01*
X176715977Y-98442057D01*
X176670157Y-98599768D01*
X176667258Y-98636621D01*
X176667258Y-98852257D01*
X176667259Y-98852258D01*
X177624715Y-98852258D01*
X177592814Y-98907513D01*
X177567258Y-99002888D01*
X177567258Y-99101628D01*
X177592814Y-99197003D01*
X177624715Y-99252258D01*
X176667259Y-99252258D01*
X176667258Y-99252259D01*
X176667258Y-99467894D01*
X176670157Y-99504747D01*
X176715977Y-99662458D01*
X176715977Y-99662459D01*
X176799572Y-99803810D01*
X176915705Y-99919943D01*
X177027308Y-99985945D01*
X177067771Y-100031840D01*
X177073529Y-100092754D01*
X177042383Y-100145419D01*
X177035105Y-100151250D01*
X176950332Y-100212842D01*
X176827843Y-100335331D01*
X176726024Y-100475472D01*
X176647383Y-100629816D01*
X176647381Y-100629819D01*
X176593856Y-100794551D01*
X176593855Y-100794555D01*
X176566758Y-100965643D01*
X176566758Y-101138872D01*
X176593855Y-101309960D01*
X176593856Y-101309964D01*
X176647381Y-101474696D01*
X176647383Y-101474699D01*
X176712978Y-101603439D01*
X176726026Y-101629046D01*
X176827844Y-101769186D01*
X176950330Y-101891672D01*
X177090470Y-101993490D01*
X177244813Y-102072131D01*
X177244815Y-102072131D01*
X177244816Y-102072132D01*
X177244819Y-102072134D01*
X177409551Y-102125659D01*
X177409555Y-102125660D01*
X177580644Y-102152758D01*
X177580647Y-102152758D01*
X177586830Y-102152758D01*
X177645021Y-102171665D01*
X177656833Y-102181753D01*
X180444477Y-104969398D01*
X180608344Y-105078890D01*
X180790423Y-105154310D01*
X180983718Y-105192759D01*
X180983719Y-105192759D01*
X181185679Y-105192759D01*
X181185699Y-105192758D01*
X196906282Y-105192758D01*
X196906283Y-105192758D01*
X197002930Y-105173533D01*
X197099578Y-105154309D01*
X197152907Y-105132219D01*
X197281656Y-105078890D01*
X197445524Y-104969397D01*
X197584881Y-104830040D01*
X197584881Y-104830038D01*
X197590518Y-104824402D01*
X197590522Y-104824397D01*
X204324397Y-98090522D01*
X204324402Y-98090518D01*
X204330038Y-98084881D01*
X204330040Y-98084881D01*
X204469397Y-97945524D01*
X204578890Y-97781656D01*
X204649661Y-97610798D01*
X204654309Y-97599578D01*
X204683271Y-97453976D01*
X204687223Y-97434109D01*
X204689176Y-97424288D01*
X204719070Y-97370902D01*
X204726931Y-97364356D01*
X204799804Y-97309804D01*
X204886054Y-97194589D01*
X204936349Y-97059741D01*
X204942758Y-97000131D01*
X204942757Y-94904386D01*
X204936349Y-94844775D01*
X204936347Y-94844769D01*
X204886055Y-94709928D01*
X204847802Y-94658829D01*
X204828065Y-94600915D01*
X204846139Y-94542460D01*
X204895120Y-94505792D01*
X204927055Y-94500500D01*
X205934108Y-94500500D01*
X205995680Y-94500500D01*
X206004308Y-94500877D01*
X206020845Y-94502323D01*
X206164937Y-94514930D01*
X206181914Y-94517923D01*
X206333491Y-94558537D01*
X206349695Y-94564435D01*
X206491902Y-94630748D01*
X206506842Y-94639374D01*
X206635367Y-94729368D01*
X206648587Y-94740460D01*
X206759539Y-94851412D01*
X206770631Y-94864632D01*
X206860625Y-94993157D01*
X206869253Y-95008101D01*
X206935560Y-95150295D01*
X206941463Y-95166512D01*
X206982074Y-95318075D01*
X206985070Y-95335069D01*
X206999123Y-95495690D01*
X206999500Y-95504319D01*
X206999500Y-97131120D01*
X207031462Y-97373894D01*
X207033730Y-97391116D01*
X207092594Y-97610801D01*
X207101600Y-97644411D01*
X207101604Y-97644424D01*
X207201953Y-97886689D01*
X207201955Y-97886693D01*
X207201957Y-97886697D01*
X207319638Y-98090526D01*
X207333079Y-98113806D01*
X207492712Y-98321844D01*
X207492714Y-98321846D01*
X207492718Y-98321851D01*
X207678149Y-98507282D01*
X207678153Y-98507285D01*
X207678155Y-98507287D01*
X207886193Y-98666920D01*
X207886197Y-98666923D01*
X208113303Y-98798043D01*
X208355581Y-98898398D01*
X208608884Y-98966270D01*
X208868880Y-99000499D01*
X208868881Y-99000499D01*
X209131119Y-99000499D01*
X209131120Y-99000499D01*
X209391115Y-98966270D01*
X209644419Y-98898398D01*
X209886697Y-98798043D01*
X210113803Y-98666923D01*
X210321851Y-98507282D01*
X210367972Y-98461160D01*
X210367974Y-98461160D01*
X210405356Y-98423777D01*
X210425853Y-98408050D01*
X210445757Y-98396558D01*
X210495256Y-98383296D01*
X210504744Y-98383296D01*
X210554238Y-98396556D01*
X210562458Y-98401302D01*
X210598696Y-98437539D01*
X210599455Y-98438853D01*
X210603441Y-98445757D01*
X210616704Y-98495256D01*
X210616704Y-98504743D01*
X210603439Y-98554245D01*
X210591949Y-98574145D01*
X210576219Y-98594646D01*
X210546062Y-98624804D01*
X210538840Y-98632026D01*
X210538839Y-98632027D01*
X210505993Y-98664874D01*
X210505987Y-98664880D01*
X210365900Y-98840543D01*
X210246355Y-99030797D01*
X210148865Y-99233238D01*
X210074656Y-99445314D01*
X210024657Y-99664376D01*
X210012848Y-99769186D01*
X209999500Y-99887654D01*
X209999500Y-99887664D01*
X209999500Y-100112336D01*
X209999502Y-100112356D01*
X210024658Y-100335621D01*
X210024660Y-100335631D01*
X210074657Y-100554683D01*
X210148865Y-100766757D01*
X210148867Y-100766761D01*
X210148868Y-100766764D01*
X210175470Y-100822003D01*
X210246358Y-100969204D01*
X210329549Y-101101602D01*
X210365900Y-101159455D01*
X210505992Y-101335125D01*
X210505995Y-101335128D01*
X210533195Y-101362329D01*
X210533196Y-101362329D01*
X210533197Y-101362330D01*
X210533198Y-101362332D01*
X210576218Y-101405353D01*
X210591949Y-101425854D01*
X210603439Y-101445754D01*
X210616704Y-101495256D01*
X210616704Y-101504743D01*
X210603441Y-101554242D01*
X210598697Y-101562459D01*
X210562464Y-101598694D01*
X210554248Y-101603438D01*
X210504744Y-101616704D01*
X210495256Y-101616704D01*
X210445754Y-101603439D01*
X210425854Y-101591949D01*
X210405353Y-101576218D01*
X210362331Y-101533197D01*
X210362330Y-101533197D01*
X210362329Y-101533196D01*
X210362329Y-101533195D01*
X210321848Y-101492715D01*
X210113806Y-101333079D01*
X210073763Y-101309960D01*
X209886697Y-101201957D01*
X209886693Y-101201955D01*
X209886689Y-101201953D01*
X209644420Y-101101602D01*
X209391115Y-101033730D01*
X209131120Y-100999501D01*
X208868880Y-100999501D01*
X208868878Y-100999501D01*
X208608890Y-101033729D01*
X208608888Y-101033729D01*
X208608884Y-101033730D01*
X208469174Y-101071165D01*
X208355587Y-101101600D01*
X208355575Y-101101604D01*
X208113310Y-101201953D01*
X207886193Y-101333079D01*
X207678155Y-101492712D01*
X207492712Y-101678155D01*
X207333079Y-101886193D01*
X207201953Y-102113310D01*
X207102411Y-102353627D01*
X207101602Y-102355581D01*
X207053887Y-102533659D01*
X207033729Y-102608889D01*
X206999500Y-102868879D01*
X206999500Y-104495680D01*
X206999123Y-104504309D01*
X206985070Y-104664930D01*
X206982074Y-104681924D01*
X206941463Y-104833487D01*
X206935560Y-104849704D01*
X206869253Y-104991898D01*
X206860625Y-105006842D01*
X206770631Y-105135367D01*
X206759539Y-105148587D01*
X206648587Y-105259539D01*
X206635367Y-105270631D01*
X206506842Y-105360625D01*
X206491898Y-105369253D01*
X206349704Y-105435560D01*
X206333487Y-105441463D01*
X206181924Y-105482074D01*
X206164930Y-105485070D01*
X206004309Y-105499123D01*
X205995680Y-105499500D01*
X171868879Y-105499500D01*
X171608889Y-105533729D01*
X171608886Y-105533729D01*
X171608884Y-105533730D01*
X171476575Y-105569182D01*
X171355588Y-105601600D01*
X171355575Y-105601604D01*
X171113310Y-105701953D01*
X170886193Y-105833079D01*
X170678155Y-105992712D01*
X170492712Y-106178155D01*
X170333079Y-106386193D01*
X170201953Y-106613310D01*
X170101604Y-106855575D01*
X170101600Y-106855588D01*
X170083412Y-106923464D01*
X170038244Y-107092040D01*
X170033729Y-107108889D01*
X169999500Y-107368879D01*
X169999500Y-107495420D01*
X169999077Y-107504554D01*
X169996939Y-107527628D01*
X169983328Y-107674523D01*
X169979971Y-107692481D01*
X169934515Y-107852240D01*
X169927915Y-107869275D01*
X169853882Y-108017954D01*
X169844264Y-108033487D01*
X169744165Y-108166038D01*
X169731858Y-108179539D01*
X169609110Y-108291439D01*
X169594531Y-108302448D01*
X169453317Y-108389884D01*
X169436963Y-108398028D01*
X169282077Y-108458032D01*
X169264505Y-108463031D01*
X169101241Y-108493550D01*
X169083050Y-108495236D01*
X168916950Y-108495236D01*
X168898759Y-108493550D01*
X168735494Y-108463031D01*
X168717922Y-108458032D01*
X168563036Y-108398028D01*
X168546682Y-108389884D01*
X168405468Y-108302448D01*
X168390889Y-108291439D01*
X168268141Y-108179539D01*
X168255834Y-108166038D01*
X168155735Y-108033487D01*
X168146117Y-108017954D01*
X168072084Y-107869275D01*
X168065484Y-107852240D01*
X168020028Y-107692481D01*
X168016671Y-107674526D01*
X168000922Y-107504554D01*
X168000500Y-107495420D01*
X168000500Y-107363168D01*
X168000500Y-107363162D01*
X167963235Y-107092035D01*
X167889398Y-106828508D01*
X167834614Y-106702382D01*
X167780369Y-106577496D01*
X167780368Y-106577495D01*
X167780366Y-106577492D01*
X167780365Y-106577489D01*
X167638168Y-106343655D01*
X167465454Y-106131362D01*
X167265442Y-105944563D01*
X167265436Y-105944559D01*
X167265434Y-105944557D01*
X167041857Y-105786740D01*
X166798865Y-105660831D01*
X166540987Y-105569181D01*
X166273043Y-105513502D01*
X166273034Y-105513500D01*
X166000003Y-105494825D01*
X165999997Y-105494825D01*
X165726965Y-105513500D01*
X165726956Y-105513502D01*
X165459012Y-105569181D01*
X165201134Y-105660831D01*
X164958142Y-105786740D01*
X164734565Y-105944557D01*
X164734559Y-105944562D01*
X164534542Y-106131366D01*
X164534541Y-106131367D01*
X164361839Y-106343646D01*
X164361835Y-106343650D01*
X164219631Y-106577495D01*
X164219630Y-106577496D01*
X164111413Y-106826641D01*
X164110602Y-106828508D01*
X164095910Y-106880946D01*
X164036766Y-107092031D01*
X164036764Y-107092040D01*
X163999500Y-107363162D01*
X163999500Y-107495420D01*
X163999077Y-107504554D01*
X163996939Y-107527628D01*
X163983328Y-107674523D01*
X163979971Y-107692481D01*
X163934515Y-107852240D01*
X163927915Y-107869275D01*
X163853882Y-108017954D01*
X163844264Y-108033487D01*
X163744165Y-108166038D01*
X163731858Y-108179539D01*
X163609110Y-108291439D01*
X163594531Y-108302448D01*
X163453317Y-108389884D01*
X163436963Y-108398028D01*
X163282077Y-108458032D01*
X163264505Y-108463031D01*
X163101241Y-108493550D01*
X163083050Y-108495236D01*
X162916950Y-108495236D01*
X162898759Y-108493550D01*
X162735494Y-108463031D01*
X162717922Y-108458032D01*
X162563036Y-108398028D01*
X162546682Y-108389884D01*
X162405468Y-108302448D01*
X162390889Y-108291439D01*
X162268141Y-108179539D01*
X162255834Y-108166038D01*
X162155735Y-108033487D01*
X162146117Y-108017954D01*
X162072084Y-107869275D01*
X162065484Y-107852240D01*
X162020028Y-107692481D01*
X162016671Y-107674526D01*
X162001132Y-107506829D01*
X162000817Y-107493139D01*
X162017349Y-107135548D01*
X162018192Y-107126448D01*
X162022992Y-107092040D01*
X162067970Y-106769598D01*
X162069643Y-106760652D01*
X162152130Y-106409938D01*
X162154631Y-106401149D01*
X162155553Y-106398398D01*
X162269123Y-106059549D01*
X162272424Y-106051030D01*
X162291741Y-106007282D01*
X162417951Y-105721442D01*
X162422012Y-105713285D01*
X162597333Y-105398523D01*
X162602136Y-105390767D01*
X162805747Y-105093532D01*
X162811257Y-105086237D01*
X162817359Y-105078889D01*
X163041414Y-104809068D01*
X163047554Y-104802332D01*
X163302332Y-104547554D01*
X163309068Y-104541414D01*
X163586238Y-104311255D01*
X163593534Y-104305746D01*
X163652407Y-104265417D01*
X163890767Y-104102136D01*
X163898523Y-104097333D01*
X164213285Y-103922012D01*
X164221442Y-103917951D01*
X164551037Y-103772421D01*
X164559549Y-103769123D01*
X164901154Y-103654629D01*
X164909938Y-103652130D01*
X165260652Y-103569643D01*
X165269598Y-103567970D01*
X165626449Y-103518191D01*
X165635548Y-103517349D01*
X165997707Y-103500605D01*
X166002279Y-103500500D01*
X166171977Y-103500500D01*
X166400156Y-103478026D01*
X166514250Y-103466789D01*
X166851578Y-103399690D01*
X166851579Y-103399689D01*
X166851582Y-103399689D01*
X167180696Y-103299853D01*
X167180698Y-103299851D01*
X167180705Y-103299850D01*
X167498462Y-103168231D01*
X167713875Y-103053090D01*
X167801784Y-103006102D01*
X167810916Y-103000000D01*
X168087760Y-102815019D01*
X168353627Y-102596827D01*
X168596827Y-102353627D01*
X168815019Y-102087760D01*
X169006100Y-101801787D01*
X169168231Y-101498462D01*
X169299850Y-101180705D01*
X169304775Y-101164472D01*
X169399689Y-100851582D01*
X169411032Y-100794557D01*
X169466789Y-100514250D01*
X169487821Y-100300705D01*
X169500500Y-100171976D01*
X169500500Y-99828023D01*
X169472746Y-99546237D01*
X169466789Y-99485750D01*
X169399690Y-99148422D01*
X169399689Y-99148421D01*
X169399689Y-99148417D01*
X169299853Y-98819303D01*
X169248592Y-98695546D01*
X169168231Y-98501538D01*
X169154092Y-98475086D01*
X169006102Y-98198215D01*
X168872105Y-97997676D01*
X168815019Y-97912240D01*
X168596827Y-97646373D01*
X168353627Y-97403173D01*
X168344952Y-97396054D01*
X168304873Y-97363162D01*
X169999500Y-97363162D01*
X169999500Y-97434108D01*
X169999500Y-99959108D01*
X169999500Y-102434108D01*
X169999500Y-102500000D01*
X169999500Y-102636838D01*
X170036765Y-102907965D01*
X170110602Y-103171492D01*
X170119405Y-103191758D01*
X170219630Y-103422503D01*
X170219631Y-103422504D01*
X170219634Y-103422509D01*
X170219635Y-103422511D01*
X170361832Y-103656345D01*
X170534546Y-103868638D01*
X170734558Y-104055437D01*
X170958143Y-104213260D01*
X171201136Y-104339169D01*
X171459010Y-104430818D01*
X171726962Y-104486499D01*
X171861186Y-104495680D01*
X171999997Y-104505175D01*
X172000000Y-104505175D01*
X172000003Y-104505175D01*
X172138814Y-104495680D01*
X172273038Y-104486499D01*
X172540990Y-104430818D01*
X172798864Y-104339169D01*
X173041857Y-104213260D01*
X173265442Y-104055437D01*
X173465454Y-103868638D01*
X173638168Y-103656345D01*
X173780365Y-103422511D01*
X173780368Y-103422503D01*
X173780369Y-103422503D01*
X173833644Y-103299850D01*
X173889398Y-103171492D01*
X173963235Y-102907965D01*
X174000500Y-102636838D01*
X174000500Y-102500000D01*
X174000500Y-102434108D01*
X174000500Y-99934108D01*
X174000500Y-97434108D01*
X174000500Y-97363162D01*
X173963235Y-97092035D01*
X173889398Y-96828508D01*
X173833644Y-96700150D01*
X173780369Y-96577496D01*
X173780368Y-96577495D01*
X173780366Y-96577492D01*
X173780365Y-96577489D01*
X173638168Y-96343655D01*
X173465454Y-96131362D01*
X173265442Y-95944563D01*
X173265436Y-95944559D01*
X173265434Y-95944557D01*
X173041857Y-95786740D01*
X172798865Y-95660831D01*
X172540987Y-95569181D01*
X172273043Y-95513502D01*
X172273034Y-95513500D01*
X172000003Y-95494825D01*
X171999997Y-95494825D01*
X171726965Y-95513500D01*
X171726956Y-95513502D01*
X171459012Y-95569181D01*
X171201134Y-95660831D01*
X170958142Y-95786740D01*
X170734565Y-95944557D01*
X170734559Y-95944562D01*
X170734558Y-95944563D01*
X170589321Y-96080206D01*
X170534542Y-96131366D01*
X170534541Y-96131367D01*
X170361839Y-96343646D01*
X170361835Y-96343650D01*
X170219631Y-96577495D01*
X170219630Y-96577496D01*
X170111413Y-96826641D01*
X170110602Y-96828508D01*
X170081014Y-96934108D01*
X170036766Y-97092031D01*
X170036764Y-97092040D01*
X170031393Y-97131120D01*
X169999500Y-97363162D01*
X168304873Y-97363162D01*
X168247823Y-97316342D01*
X168087760Y-97184981D01*
X167948664Y-97092040D01*
X167801784Y-96993897D01*
X167498480Y-96831778D01*
X167498468Y-96831772D01*
X167498462Y-96831769D01*
X167498457Y-96831766D01*
X167498453Y-96831765D01*
X167180696Y-96700146D01*
X166851582Y-96600310D01*
X166580229Y-96546335D01*
X166514250Y-96533211D01*
X166514248Y-96533210D01*
X166171977Y-96499500D01*
X166171969Y-96499500D01*
X166002279Y-96499500D01*
X165997707Y-96499394D01*
X165635553Y-96482650D01*
X165626448Y-96481807D01*
X165269618Y-96432032D01*
X165260632Y-96430351D01*
X165200121Y-96416119D01*
X164909944Y-96347870D01*
X164901149Y-96345368D01*
X164559557Y-96230878D01*
X164551030Y-96227575D01*
X164221457Y-96082055D01*
X164213271Y-96077979D01*
X163898533Y-95902671D01*
X163890758Y-95897857D01*
X163593534Y-95694253D01*
X163586237Y-95688742D01*
X163309079Y-95458594D01*
X163302321Y-95452434D01*
X163047565Y-95197678D01*
X163041405Y-95190920D01*
X162811257Y-94913762D01*
X162805746Y-94906465D01*
X162602142Y-94609241D01*
X162597328Y-94601466D01*
X162564462Y-94542460D01*
X162422017Y-94286722D01*
X162417944Y-94278542D01*
X162389119Y-94213260D01*
X162272424Y-93948969D01*
X162269121Y-93940442D01*
X162154631Y-93598850D01*
X162152129Y-93590055D01*
X162069644Y-93239350D01*
X162067970Y-93230397D01*
X162018192Y-92873551D01*
X162017349Y-92864446D01*
X162006562Y-92631120D01*
X162000817Y-92506860D01*
X162001132Y-92493170D01*
X162016672Y-92325469D01*
X162020026Y-92307524D01*
X162065485Y-92147754D01*
X162072081Y-92130729D01*
X162146121Y-91982037D01*
X162155735Y-91966512D01*
X162255834Y-91833961D01*
X162268141Y-91820460D01*
X162390895Y-91708555D01*
X162405462Y-91697555D01*
X162546685Y-91610113D01*
X162563033Y-91601972D01*
X162717932Y-91541964D01*
X162735477Y-91536971D01*
X162898767Y-91506448D01*
X162916950Y-91504764D01*
X163083050Y-91504764D01*
X163101240Y-91506450D01*
G37*
%TD.AperFunction*%
%TD*%
%TA.AperFunction,NonConductor*%
G36*
X202515652Y-94519407D02*
G01*
X202551616Y-94568907D01*
X202551616Y-94630093D01*
X202536714Y-94658829D01*
X202498460Y-94709928D01*
X202448168Y-94844769D01*
X202448166Y-94844780D01*
X202441758Y-94904387D01*
X202441758Y-97000124D01*
X202441759Y-97000128D01*
X202448166Y-97059738D01*
X202449591Y-97065765D01*
X202447321Y-97066301D01*
X202449521Y-97117451D01*
X202424143Y-97160935D01*
X199886024Y-99699054D01*
X199831507Y-99726831D01*
X199771075Y-99717260D01*
X199727810Y-99673995D01*
X199724556Y-99666935D01*
X199684365Y-99569905D01*
X199684364Y-99569904D01*
X199684362Y-99569898D01*
X199606046Y-99434251D01*
X199606042Y-99434246D01*
X199606040Y-99434242D01*
X199525718Y-99329566D01*
X199525715Y-99329563D01*
X199525712Y-99329559D01*
X199414957Y-99218804D01*
X199414952Y-99218800D01*
X199414949Y-99218797D01*
X199310273Y-99138475D01*
X199310267Y-99138471D01*
X199310265Y-99138470D01*
X199174618Y-99060154D01*
X199174613Y-99060151D01*
X199052700Y-99009653D01*
X198901407Y-98969115D01*
X198770575Y-98951891D01*
X198770574Y-98951891D01*
X198613942Y-98951891D01*
X198613940Y-98951891D01*
X198483108Y-98969115D01*
X198331815Y-99009653D01*
X198209902Y-99060151D01*
X198074242Y-99138475D01*
X197969566Y-99218797D01*
X197858797Y-99329566D01*
X197778475Y-99434242D01*
X197700151Y-99569902D01*
X197649653Y-99691815D01*
X197609115Y-99843108D01*
X197591891Y-99973940D01*
X197591891Y-100130575D01*
X197609115Y-100261407D01*
X197649653Y-100412700D01*
X197700151Y-100534613D01*
X197700154Y-100534618D01*
X197755118Y-100629819D01*
X197778475Y-100670273D01*
X197858797Y-100774949D01*
X197858800Y-100774952D01*
X197858804Y-100774957D01*
X197969559Y-100885712D01*
X197969563Y-100885715D01*
X197969566Y-100885718D01*
X198074242Y-100966040D01*
X198074246Y-100966042D01*
X198074251Y-100966046D01*
X198209898Y-101044362D01*
X198209904Y-101044364D01*
X198209905Y-101044365D01*
X198234237Y-101054443D01*
X198306935Y-101084556D01*
X198353461Y-101124292D01*
X198367745Y-101183787D01*
X198344331Y-101240315D01*
X198339054Y-101246024D01*
X196422318Y-103162762D01*
X196367801Y-103190539D01*
X196352314Y-103191758D01*
X195645530Y-103191758D01*
X195587339Y-103172851D01*
X195551375Y-103123351D01*
X195551375Y-103062165D01*
X195554073Y-103054855D01*
X195554799Y-103053101D01*
X195554805Y-103053090D01*
X195613198Y-102873376D01*
X195613910Y-102868879D01*
X195642758Y-102686742D01*
X195642758Y-102497773D01*
X195613199Y-102311144D01*
X195607384Y-102293247D01*
X195554805Y-102131426D01*
X195469018Y-101963059D01*
X195461663Y-101952935D01*
X195442758Y-101894747D01*
X195442758Y-101703718D01*
X195442757Y-101703714D01*
X195441132Y-101695546D01*
X195404309Y-101510423D01*
X195396976Y-101492721D01*
X195396976Y-101492719D01*
X195382219Y-101457092D01*
X195328892Y-101328348D01*
X195328886Y-101328336D01*
X195244438Y-101201953D01*
X195219397Y-101164476D01*
X195080040Y-101025119D01*
X195080039Y-101025118D01*
X192736681Y-98681761D01*
X192708905Y-98627245D01*
X192718476Y-98566813D01*
X192761741Y-98523548D01*
X192806686Y-98512758D01*
X193744748Y-98512758D01*
X193802937Y-98531664D01*
X193809139Y-98536170D01*
X193813060Y-98539019D01*
X193867610Y-98566813D01*
X193981426Y-98624805D01*
X194161140Y-98683198D01*
X194161141Y-98683198D01*
X194161144Y-98683199D01*
X194347774Y-98712758D01*
X194347777Y-98712758D01*
X194536742Y-98712758D01*
X194723371Y-98683199D01*
X194723372Y-98683198D01*
X194723376Y-98683198D01*
X194903090Y-98624805D01*
X195071457Y-98539018D01*
X195081578Y-98531664D01*
X195139768Y-98512758D01*
X197230798Y-98512758D01*
X197230799Y-98512758D01*
X197327446Y-98493533D01*
X197424094Y-98474309D01*
X197509723Y-98438840D01*
X197606172Y-98398890D01*
X197770040Y-98289397D01*
X197909397Y-98150040D01*
X197909397Y-98150038D01*
X197915034Y-98144402D01*
X197915038Y-98144397D01*
X198577682Y-97481753D01*
X198632199Y-97453976D01*
X198647686Y-97452757D01*
X199490125Y-97452757D01*
X199490130Y-97452757D01*
X199549741Y-97446349D01*
X199665502Y-97403173D01*
X199684587Y-97396055D01*
X199684587Y-97396054D01*
X199684589Y-97396054D01*
X199799804Y-97309804D01*
X199886054Y-97194589D01*
X199936349Y-97059741D01*
X199942758Y-97000131D01*
X199942757Y-94904386D01*
X199936349Y-94844775D01*
X199936347Y-94844769D01*
X199886055Y-94709928D01*
X199847802Y-94658829D01*
X199828065Y-94600915D01*
X199846139Y-94542460D01*
X199895120Y-94505792D01*
X199927055Y-94500500D01*
X202457461Y-94500500D01*
X202515652Y-94519407D01*
G37*
%TD.AperFunction*%
M02*
