%TF.GenerationSoftware,KiCad,Pcbnew,10.0.1*%
%TF.CreationDate,2026-05-07T20:07:55-03:00*%
%TF.ProjectId,FabLaBrinde,4661624c-6142-4726-996e-64652e6b6963,rev?*%
%TF.SameCoordinates,Original*%
%TF.FileFunction,Profile,NP*%
%FSLAX46Y46*%
G04 Gerber Fmt 4.6, Leading zero omitted, Abs format (unit mm)*
G04 Created by KiCad (PCBNEW 10.0.1) date 2026-05-07 20:07:55*
%MOMM*%
%LPD*%
G01*
G04 APERTURE LIST*
%TA.AperFunction,Profile*%
%ADD10C,0.050000*%
%TD*%
%ADD11C,0.000000*%
%TA.AperFunction,Profile*%
%ADD12C,0.000000*%
%TD*%
G04 APERTURE END LIST*
D10*
X206000000Y-106000000D02*
X172000000Y-106000000D01*
X164500000Y-107500000D02*
G75*
G02*
X167500000Y-107500000I1500000J0D01*
G01*
X207500000Y-104500000D02*
X207500000Y-103000000D01*
X210939340Y-101060660D02*
G75*
G02*
X210500000Y-100000000I1060660J1060660D01*
G01*
X207500000Y-103000000D02*
G75*
G02*
X210060660Y-101939340I1500000J0D01*
G01*
X170500000Y-107500000D02*
G75*
G02*
X172000000Y-106000000I1500000J0D01*
G01*
X210939340Y-101060660D02*
G75*
G02*
X210060660Y-101939340I-439340J-439340D01*
G01*
X170500000Y-107500000D02*
G75*
G02*
X167500000Y-107500000I-1500000J0D01*
G01*
X207500000Y-104500000D02*
G75*
G02*
X206000000Y-106000000I-1500001J1D01*
G01*
X210060660Y-98060660D02*
G75*
G02*
X210939340Y-98939340I439340J-439340D01*
G01*
X210500000Y-100000000D02*
G75*
G02*
X210939340Y-98939340I1500000J0D01*
G01*
X172000000Y-94000000D02*
G75*
G02*
X170500000Y-92500000I0J1500000D01*
G01*
X207500000Y-95500000D02*
X207500000Y-97000000D01*
X206000000Y-94000000D02*
G75*
G02*
X207500000Y-95500000I0J-1500000D01*
G01*
X167500000Y-92500000D02*
G75*
G02*
X164500000Y-92500000I-1500000J0D01*
G01*
X167500000Y-92500000D02*
G75*
G02*
X170500000Y-92500000I1500000J0D01*
G01*
X173500000Y-102500000D02*
X173500000Y-100000000D01*
X170500000Y-102500000D02*
X170500000Y-100025000D01*
X173500000Y-102500000D02*
G75*
G02*
X170500000Y-102500000I-1500000J0D01*
G01*
X170500000Y-97500000D02*
X170500000Y-100025000D01*
X173500000Y-97500000D02*
X173500000Y-100000000D01*
X170500000Y-97500000D02*
G75*
G02*
X173500000Y-97500000I1500000J0D01*
G01*
D11*
X214692258Y-97052258D02*
X214692257Y-97052258D01*
X214692257Y-97052258D01*
X214692257Y-97052258D01*
X214692257Y-97052258D01*
X214692257Y-97052258D01*
X214692257Y-97052258D01*
X214692257Y-97052258D01*
X214692257Y-97052257D01*
X214692257Y-97052257D01*
X214692257Y-97052257D01*
X214692257Y-97052257D01*
X214692257Y-97052257D01*
X214692258Y-97052257D01*
X214692258Y-97052257D01*
X214692258Y-97052257D01*
X214692258Y-97052257D01*
X214692258Y-97052257D01*
X214692258Y-97052257D01*
X214692258Y-97052257D01*
X214692258Y-97052257D01*
X214692258Y-97052257D01*
X214692258Y-97052257D01*
X214692258Y-97052257D01*
X214692258Y-97052257D01*
X214692259Y-97052257D01*
X214692259Y-97052257D01*
X214692259Y-97052257D01*
X214692259Y-97052257D01*
X214692259Y-97052257D01*
X214692259Y-97052257D01*
X214692259Y-97052258D01*
X214692259Y-97052258D01*
X214692259Y-97052258D01*
X214692259Y-97052258D01*
X214692259Y-97052258D01*
X214692259Y-97052258D01*
X214692259Y-97052258D01*
X214692258Y-97052258D01*
X214692258Y-97052258D02*
X214692259Y-97052258D01*
X214692259Y-97052258D01*
X214692259Y-97052258D01*
X214692259Y-97052258D01*
X214692259Y-97052258D01*
X214692259Y-97052258D01*
X214692259Y-97052259D01*
X214692259Y-97052259D01*
X214692259Y-97052259D01*
X214692259Y-97052259D01*
X214692259Y-97052259D01*
X214692259Y-97052259D01*
X214692259Y-97052259D01*
X214692258Y-97052259D01*
X214692258Y-97052259D01*
X214692258Y-97052259D01*
X214692258Y-97052259D01*
X214692258Y-97052259D01*
X214692258Y-97052259D01*
X214692258Y-97052259D01*
X214692258Y-97052259D01*
X214692258Y-97052259D01*
X214692258Y-97052259D01*
X214692258Y-97052259D01*
X214692258Y-97052259D01*
X214692257Y-97052259D01*
X214692257Y-97052259D01*
X214692257Y-97052259D01*
X214692257Y-97052259D01*
X214692257Y-97052259D01*
X214692257Y-97052259D01*
X214692257Y-97052258D01*
X214692257Y-97052258D01*
X214692257Y-97052258D01*
X214692257Y-97052258D01*
X214692257Y-97052258D01*
X214692257Y-97052258D01*
X214692258Y-97052258D01*
D10*
X206000000Y-94000000D02*
X172000000Y-94000000D01*
X161500000Y-107500000D02*
G75*
G02*
X166000000Y-103000000I4500000J0D01*
G01*
X169000000Y-100000000D02*
G75*
G02*
X166000000Y-103000000I-3000000J0D01*
G01*
X164500000Y-107500000D02*
G75*
G02*
X161500000Y-107500000I-1500000J0D01*
G01*
X161500000Y-92500000D02*
G75*
G02*
X164500000Y-92500000I1500000J0D01*
G01*
X166000000Y-97000000D02*
G75*
G02*
X169000000Y-100000000I-1J-3000001D01*
G01*
X210060660Y-98060660D02*
G75*
G02*
X207500000Y-97000000I-1060660J1060660D01*
G01*
X166000000Y-97000000D02*
G75*
G02*
X161500000Y-92500000I-2J4499998D01*
G01*
D12*
%TA.AperFunction,Profile*%
%TO.C,SW1*%
G36*
X198921868Y-99497930D02*
G01*
X199057515Y-99576246D01*
X199168270Y-99687001D01*
X199246586Y-99822648D01*
X199287125Y-99973942D01*
X199287125Y-100130574D01*
X199246586Y-100281868D01*
X199168270Y-100417515D01*
X199057515Y-100528270D01*
X198921868Y-100606586D01*
X198770574Y-100647125D01*
X198613942Y-100647125D01*
X198462648Y-100606586D01*
X198327001Y-100528270D01*
X198216246Y-100417515D01*
X198137930Y-100281868D01*
X198097391Y-100130574D01*
X198097391Y-99973942D01*
X198137930Y-99822648D01*
X198216246Y-99687001D01*
X198327001Y-99576246D01*
X198462648Y-99497930D01*
X198613942Y-99457391D01*
X198770574Y-99457391D01*
X198921868Y-99497930D01*
G37*
%TD.AperFunction*%
%TD*%
M02*
